<svg width="25" height="25" viewBox="0 0 25 25" fill="none" xmlns="http://www.w3.org/2000/svg">
<path d="M22.5377 20.6242C22.7187 20.7844 22.7365 21.0584 22.5768 21.24C22.4916 21.3361 22.3673 21.3894 22.2395 21.3859L19.9463 21.3111C19.6907 21.304 19.4884 21.0976 19.4778 20.8413L19.4032 18.542C19.3961 18.3 19.5878 18.1006 19.8256 18.0935C19.9534 18.0935 20.0777 18.1433 20.1629 18.2394L20.7663 18.8445C24.3481 14.463 23.7091 7.99927 19.3429 4.40792C16.322 1.92707 12.158 1.38249 8.60464 3.0091C8.22126 3.18707 7.76333 3.04114 7.55389 2.67097C7.4829 2.54639 7.44385 2.40402 7.44385 2.26165C7.44385 1.93775 7.63199 1.64588 7.92308 1.51063C13.8903 -1.21937 20.9367 1.42165 23.6559 7.40487C25.5586 11.5871 24.8877 16.4954 21.9378 20.0155L22.5413 20.6206L22.5377 20.6242Z" fill="white"/>
<path d="M18.2636 22.4394C18.2636 22.7633 18.0755 23.0552 17.7844 23.1905C11.8172 25.9205 4.77076 23.2794 2.0516 17.2962C0.148889 13.114 0.819805 8.20572 3.76971 4.68555L3.16624 4.08047C2.9852 3.9203 2.96745 3.64623 3.12719 3.4647C3.21239 3.3686 3.33663 3.31521 3.46442 3.31877L5.75761 3.39352C6.0132 3.40063 6.21554 3.60708 6.22619 3.86335L6.30074 6.16267C6.30784 6.4047 6.11614 6.60403 5.87831 6.61114C5.75051 6.61114 5.62627 6.56131 5.54107 6.46521L4.9376 5.86013C1.35583 10.2417 1.9948 16.7054 6.36108 20.2967C9.38198 22.7776 13.5459 23.3222 17.0993 21.6955C17.4827 21.5176 17.9406 21.6635 18.15 22.0337C18.221 22.1583 18.2601 22.3006 18.2601 22.443L18.2636 22.4394Z" fill="white"/>
<path d="M10.8053 19.3286V13.5874H7.93709C7.70635 13.5839 7.52531 13.3917 7.52886 13.1639C7.52886 13.082 7.55371 13.0037 7.59986 12.9396L13.3399 4.32963C13.4642 4.14454 13.7127 4.09115 13.9008 4.21573C14.0179 4.29403 14.0854 4.42573 14.0818 4.56454V10.3057H16.9501C17.1808 10.3093 17.3619 10.5015 17.3583 10.7293C17.3583 10.8112 17.3335 10.8895 17.2873 10.9535L11.5473 19.5635C11.423 19.7486 11.1745 19.802 10.9864 19.6774C10.8692 19.5991 10.8018 19.4674 10.8053 19.3286Z" fill="white"/>
</svg>
