<svg width="500" height="500" viewBox="0 0 500 500" fill="none" xmlns="http://www.w3.org/2000/svg">
<path d="M425.727 144.611H298.819L343.883 70.6699C347.79 64.2594 345.761 55.8952 339.35 51.9885C332.94 48.0801 324.575 50.1109 320.669 56.5214L266.983 144.611H233.529L179.843 56.5214C175.936 50.1127 167.572 48.0828 161.162 51.9885C154.751 55.8961 152.721 64.2594 156.629 70.6699L201.692 144.611H74.7824C58.3601 144.611 45 157.971 45 174.392V420.219C45 436.64 58.3601 450 74.7824 450H425.728C442.151 450 455.511 436.64 455.511 420.219V174.392C455.51 157.971 442.15 144.611 425.727 144.611ZM332.88 384.491C332.88 393.431 325.632 400.68 316.69 400.68H109.511C100.57 400.679 93.3224 393.431 93.3224 384.491V210.121C93.3224 201.18 100.57 193.932 109.512 193.932H316.69C325.631 193.932 332.88 201.18 332.88 210.121V384.491ZM392.793 379.317C377.304 379.317 364.701 366.715 364.701 351.225C364.701 335.734 377.304 323.133 392.793 323.133C408.283 323.133 420.886 335.734 420.886 351.225C420.886 366.715 408.283 379.317 392.793 379.317ZM392.793 271.479C377.304 271.479 364.701 258.877 364.701 243.387C364.701 227.896 377.304 215.294 392.793 215.294C408.283 215.294 420.886 227.896 420.886 243.387C420.886 258.877 408.283 271.479 392.793 271.479Z" fill="white"/>
</svg>
